<mxfile host="app.diagrams.net" modified="2022-05-28T06:06:42.514Z" agent="5.0 (Macintosh; Intel Mac OS X 10_15_7) AppleWebKit/537.36 (KHTML, like Gecko) Chrome/101.0.0.0 Safari/537.36" etag="G5HS3rXqvjPFVq6w6DkA" version="18.1.3" type="github">
  <diagram id="3FWE_rudfi2b-U-m5FA2" name="Page-1">
    <mxGraphModel dx="946" dy="1782" grid="1" gridSize="10" guides="1" tooltips="1" connect="1" arrows="1" fold="1" page="1" pageScale="1" pageWidth="827" pageHeight="1169" math="0" shadow="0">
      <root>
        <mxCell id="0" />
        <mxCell id="1" parent="0" />
        <mxCell id="teMhRk45Mm5phALTYdal-2" value="1" style="rounded=0;whiteSpace=wrap;html=1;fontSize=16;fillColor=#ffcd28;gradientColor=#ffa500;strokeColor=#d79b00;" vertex="1" parent="1">
          <mxGeometry x="160" y="240" width="80" height="40" as="geometry" />
        </mxCell>
        <mxCell id="teMhRk45Mm5phALTYdal-3" value="1" style="rounded=0;whiteSpace=wrap;html=1;fontSize=16;fillColor=#d5e8d4;gradientColor=#97d077;strokeColor=#82b366;" vertex="1" parent="1">
          <mxGeometry x="320" y="240" width="80" height="40" as="geometry" />
        </mxCell>
        <mxCell id="teMhRk45Mm5phALTYdal-4" value="2" style="rounded=0;whiteSpace=wrap;html=1;fontSize=16;fillColor=#ffcd28;gradientColor=#ffa500;strokeColor=#d79b00;" vertex="1" parent="1">
          <mxGeometry x="160" y="280" width="80" height="40" as="geometry" />
        </mxCell>
        <mxCell id="teMhRk45Mm5phALTYdal-5" value="2" style="rounded=0;whiteSpace=wrap;html=1;fontSize=16;fillColor=#d5e8d4;gradientColor=#97d077;strokeColor=#82b366;" vertex="1" parent="1">
          <mxGeometry x="320" y="280" width="80" height="40" as="geometry" />
        </mxCell>
        <mxCell id="teMhRk45Mm5phALTYdal-6" value="1" style="rounded=0;whiteSpace=wrap;html=1;fontSize=16;fillColor=#ffcd28;gradientColor=#ffa500;strokeColor=#d79b00;" vertex="1" parent="1">
          <mxGeometry x="260" y="80" width="80" height="40" as="geometry" />
        </mxCell>
        <mxCell id="teMhRk45Mm5phALTYdal-7" value="iphone13" style="rounded=0;whiteSpace=wrap;html=1;fontSize=16;fillColor=#ffcd28;gradientColor=#ffa500;strokeColor=#d79b00;" vertex="1" parent="1">
          <mxGeometry x="414" y="120" width="84" height="40" as="geometry" />
        </mxCell>
        <mxCell id="teMhRk45Mm5phALTYdal-8" value="0007" style="rounded=0;whiteSpace=wrap;html=1;fontSize=16;fillColor=#ffcd28;gradientColor=#ffa500;strokeColor=#d79b00;" vertex="1" parent="1">
          <mxGeometry x="570" y="80" width="80" height="40" as="geometry" />
        </mxCell>
        <mxCell id="teMhRk45Mm5phALTYdal-9" style="rounded=0;orthogonalLoop=1;jettySize=auto;html=1;entryX=0;entryY=0.5;entryDx=0;entryDy=0;fontSize=16;exitX=0.5;exitY=1;exitDx=0;exitDy=0;edgeStyle=orthogonalEdgeStyle;" edge="1" parent="1" source="teMhRk45Mm5phALTYdal-10" target="teMhRk45Mm5phALTYdal-12">
          <mxGeometry relative="1" as="geometry">
            <Array as="points">
              <mxPoint x="200" y="380" />
              <mxPoint x="520" y="380" />
              <mxPoint x="520" y="260" />
            </Array>
          </mxGeometry>
        </mxCell>
        <mxCell id="teMhRk45Mm5phALTYdal-10" value="2" style="rounded=0;whiteSpace=wrap;html=1;fontSize=16;fillColor=#ffcd28;gradientColor=#ffa500;strokeColor=#d79b00;" vertex="1" parent="1">
          <mxGeometry x="160" y="320" width="80" height="40" as="geometry" />
        </mxCell>
        <mxCell id="teMhRk45Mm5phALTYdal-11" value="3" style="rounded=0;whiteSpace=wrap;html=1;fontSize=16;fillColor=#d5e8d4;gradientColor=#97d077;strokeColor=#82b366;" vertex="1" parent="1">
          <mxGeometry x="320" y="320" width="80" height="40" as="geometry" />
        </mxCell>
        <mxCell id="teMhRk45Mm5phALTYdal-12" value="3" style="rounded=0;whiteSpace=wrap;html=1;fontSize=16;fillColor=#ffcd28;gradientColor=#ffa500;strokeColor=#d79b00;" vertex="1" parent="1">
          <mxGeometry x="560" y="240" width="80" height="40" as="geometry" />
        </mxCell>
        <mxCell id="teMhRk45Mm5phALTYdal-13" value="4" style="rounded=0;whiteSpace=wrap;html=1;fontSize=16;fillColor=#d5e8d4;gradientColor=#97d077;strokeColor=#82b366;" vertex="1" parent="1">
          <mxGeometry x="720" y="240" width="80" height="40" as="geometry" />
        </mxCell>
        <mxCell id="teMhRk45Mm5phALTYdal-14" value="4" style="rounded=0;whiteSpace=wrap;html=1;fontSize=16;fillColor=#ffcd28;gradientColor=#ffa500;strokeColor=#d79b00;" vertex="1" parent="1">
          <mxGeometry x="560" y="280" width="80" height="40" as="geometry" />
        </mxCell>
        <mxCell id="teMhRk45Mm5phALTYdal-15" value="5" style="rounded=0;whiteSpace=wrap;html=1;fontSize=16;fillColor=#d5e8d4;gradientColor=#97d077;strokeColor=#82b366;" vertex="1" parent="1">
          <mxGeometry x="720" y="280" width="80" height="40" as="geometry" />
        </mxCell>
        <mxCell id="teMhRk45Mm5phALTYdal-16" style="edgeStyle=orthogonalEdgeStyle;rounded=0;orthogonalLoop=1;jettySize=auto;html=1;entryX=0;entryY=0.5;entryDx=0;entryDy=0;fontSize=16;" edge="1" parent="1" source="teMhRk45Mm5phALTYdal-17" target="teMhRk45Mm5phALTYdal-19">
          <mxGeometry relative="1" as="geometry">
            <Array as="points">
              <mxPoint x="600" y="380" />
              <mxPoint x="930" y="380" />
              <mxPoint x="930" y="260" />
            </Array>
          </mxGeometry>
        </mxCell>
        <mxCell id="teMhRk45Mm5phALTYdal-17" value="5" style="rounded=0;whiteSpace=wrap;html=1;fontSize=16;fillColor=#ffcd28;gradientColor=#ffa500;strokeColor=#d79b00;" vertex="1" parent="1">
          <mxGeometry x="560" y="320" width="80" height="40" as="geometry" />
        </mxCell>
        <mxCell id="teMhRk45Mm5phALTYdal-18" value="6" style="rounded=0;whiteSpace=wrap;html=1;fontSize=16;fillColor=#d5e8d4;gradientColor=#97d077;strokeColor=#82b366;" vertex="1" parent="1">
          <mxGeometry x="720" y="320" width="80" height="40" as="geometry" />
        </mxCell>
        <mxCell id="teMhRk45Mm5phALTYdal-19" value="0007" style="rounded=0;whiteSpace=wrap;html=1;fontSize=16;fillColor=#ffcd28;gradientColor=#ffa500;strokeColor=#d79b00;" vertex="1" parent="1">
          <mxGeometry x="960" y="240" width="80" height="40" as="geometry" />
        </mxCell>
        <mxCell id="teMhRk45Mm5phALTYdal-20" value="ps5" style="rounded=0;whiteSpace=wrap;html=1;fontSize=16;fillColor=#ffcd28;gradientColor=#ffa500;strokeColor=#d79b00;" vertex="1" parent="1">
          <mxGeometry x="1040" y="240" width="80" height="40" as="geometry" />
        </mxCell>
        <mxCell id="teMhRk45Mm5phALTYdal-21" value="0008" style="rounded=0;whiteSpace=wrap;html=1;fontSize=16;fillColor=#ffcd28;gradientColor=#ffa500;strokeColor=#d79b00;" vertex="1" parent="1">
          <mxGeometry x="960" y="280" width="80" height="40" as="geometry" />
        </mxCell>
        <mxCell id="teMhRk45Mm5phALTYdal-22" value="grape" style="rounded=0;whiteSpace=wrap;html=1;fontSize=16;fillColor=#ffcd28;gradientColor=#ffa500;strokeColor=#d79b00;" vertex="1" parent="1">
          <mxGeometry x="1040" y="280" width="80" height="40" as="geometry" />
        </mxCell>
        <mxCell id="teMhRk45Mm5phALTYdal-23" value="0009" style="rounded=0;whiteSpace=wrap;html=1;fontSize=16;fillColor=#ffcd28;gradientColor=#ffa500;strokeColor=#d79b00;" vertex="1" parent="1">
          <mxGeometry x="960" y="320" width="80" height="40" as="geometry" />
        </mxCell>
        <mxCell id="teMhRk45Mm5phALTYdal-24" value="watermelon" style="rounded=0;whiteSpace=wrap;html=1;fontSize=16;fillColor=#ffcd28;gradientColor=#ffa500;strokeColor=#d79b00;" vertex="1" parent="1">
          <mxGeometry x="1040" y="320" width="80" height="40" as="geometry" />
        </mxCell>
        <mxCell id="teMhRk45Mm5phALTYdal-25" value="....." style="rounded=0;whiteSpace=wrap;html=1;fontSize=16;" vertex="1" parent="1">
          <mxGeometry x="850" y="80" width="160" height="80" as="geometry" />
        </mxCell>
        <mxCell id="teMhRk45Mm5phALTYdal-26" value="....." style="rounded=0;whiteSpace=wrap;html=1;fontSize=16;" vertex="1" parent="1">
          <mxGeometry x="1140" y="80" width="160" height="80" as="geometry" />
        </mxCell>
        <mxCell id="teMhRk45Mm5phALTYdal-27" value="1" style="rounded=0;whiteSpace=wrap;html=1;fontSize=16;fillColor=#ffcd28;gradientColor=#ffa500;strokeColor=#d79b00;" vertex="1" parent="1">
          <mxGeometry x="494" y="-110" width="80" height="40" as="geometry" />
        </mxCell>
        <mxCell id="teMhRk45Mm5phALTYdal-28" value="0010" style="rounded=0;whiteSpace=wrap;html=1;fontSize=16;fillColor=#ffcd28;gradientColor=#ffa500;strokeColor=#d79b00;" vertex="1" parent="1">
          <mxGeometry x="644" y="-110" width="84" height="40" as="geometry" />
        </mxCell>
        <mxCell id="teMhRk45Mm5phALTYdal-29" value="0020" style="rounded=0;whiteSpace=wrap;html=1;fontSize=16;fillColor=#ffcd28;gradientColor=#ffa500;strokeColor=#d79b00;" vertex="1" parent="1">
          <mxGeometry x="804" y="-110" width="80" height="40" as="geometry" />
        </mxCell>
        <mxCell id="teMhRk45Mm5phALTYdal-30" value="根节点" style="text;html=1;align=center;verticalAlign=middle;resizable=0;points=[];autosize=1;strokeColor=#36393d;fillColor=#ffff88;fontSize=16;" vertex="1" parent="1">
          <mxGeometry x="680" y="-150" width="60" height="20" as="geometry" />
        </mxCell>
        <mxCell id="teMhRk45Mm5phALTYdal-31" value="叶子节点" style="text;html=1;align=center;verticalAlign=middle;resizable=0;points=[];autosize=1;strokeColor=#36393d;fillColor=#ffff88;fontSize=16;" vertex="1" parent="1">
          <mxGeometry x="750" y="400" width="80" height="20" as="geometry" />
        </mxCell>
        <mxCell id="teMhRk45Mm5phALTYdal-32" value="1" style="rounded=0;whiteSpace=wrap;html=1;fontSize=16;fillColor=#ffcd28;gradientColor=#ffa500;strokeColor=#d79b00;" vertex="1" parent="1">
          <mxGeometry x="494" y="-70" width="80" height="40" as="geometry" />
        </mxCell>
        <mxCell id="teMhRk45Mm5phALTYdal-33" value="1" style="rounded=0;whiteSpace=wrap;html=1;fontSize=16;fillColor=#ffcd28;gradientColor=#ffa500;strokeColor=#d79b00;" vertex="1" parent="1">
          <mxGeometry x="260" y="120" width="80" height="40" as="geometry" />
        </mxCell>
        <mxCell id="teMhRk45Mm5phALTYdal-34" value="1" style="rounded=0;whiteSpace=wrap;html=1;fontSize=16;fillColor=#ffcd28;gradientColor=#ffa500;strokeColor=#d79b00;" vertex="1" parent="1">
          <mxGeometry x="240" y="240" width="80" height="40" as="geometry" />
        </mxCell>
        <mxCell id="teMhRk45Mm5phALTYdal-35" value="7" style="rounded=0;whiteSpace=wrap;html=1;fontSize=16;fillColor=#ffcd28;gradientColor=#ffa500;strokeColor=#d79b00;" vertex="1" parent="1">
          <mxGeometry x="240" y="280" width="80" height="40" as="geometry" />
        </mxCell>
        <mxCell id="teMhRk45Mm5phALTYdal-36" value="8" style="rounded=0;whiteSpace=wrap;html=1;fontSize=16;fillColor=#ffcd28;gradientColor=#ffa500;strokeColor=#d79b00;" vertex="1" parent="1">
          <mxGeometry x="240" y="320" width="80" height="40" as="geometry" />
        </mxCell>
        <mxCell id="teMhRk45Mm5phALTYdal-37" value="2" style="rounded=0;whiteSpace=wrap;html=1;fontSize=16;fillColor=#ffcd28;gradientColor=#ffa500;strokeColor=#d79b00;" vertex="1" parent="1">
          <mxGeometry x="640" y="240" width="80" height="40" as="geometry" />
        </mxCell>
        <mxCell id="teMhRk45Mm5phALTYdal-38" value="ipad8" style="rounded=0;whiteSpace=wrap;html=1;fontSize=16;fillColor=#ffcd28;gradientColor=#ffa500;strokeColor=#d79b00;" vertex="1" parent="1">
          <mxGeometry x="640" y="280" width="80" height="40" as="geometry" />
        </mxCell>
        <mxCell id="teMhRk45Mm5phALTYdal-39" value="macbookpro" style="rounded=0;whiteSpace=wrap;html=1;fontSize=16;fillColor=#ffcd28;gradientColor=#ffa500;strokeColor=#d79b00;" vertex="1" parent="1">
          <mxGeometry x="640" y="320" width="80" height="40" as="geometry" />
        </mxCell>
        <mxCell id="teMhRk45Mm5phALTYdal-40" value="7" style="rounded=0;whiteSpace=wrap;html=1;fontSize=16;fillColor=#d5e8d4;gradientColor=#97d077;strokeColor=#82b366;" vertex="1" parent="1">
          <mxGeometry x="1120" y="240" width="80" height="40" as="geometry" />
        </mxCell>
        <mxCell id="teMhRk45Mm5phALTYdal-41" value="8" style="rounded=0;whiteSpace=wrap;html=1;fontSize=16;fillColor=#d5e8d4;gradientColor=#97d077;strokeColor=#82b366;" vertex="1" parent="1">
          <mxGeometry x="1120" y="280" width="80" height="40" as="geometry" />
        </mxCell>
        <mxCell id="teMhRk45Mm5phALTYdal-42" value="9" style="rounded=0;whiteSpace=wrap;html=1;fontSize=16;fillColor=#d5e8d4;gradientColor=#97d077;strokeColor=#82b366;" vertex="1" parent="1">
          <mxGeometry x="1120" y="320" width="80" height="40" as="geometry" />
        </mxCell>
        <mxCell id="teMhRk45Mm5phALTYdal-43" value="0004" style="rounded=0;whiteSpace=wrap;html=1;fontSize=16;fillColor=#ffcd28;gradientColor=#ffa500;strokeColor=#d79b00;" vertex="1" parent="1">
          <mxGeometry x="413.5" y="80" width="84" height="40" as="geometry" />
        </mxCell>
        <mxCell id="teMhRk45Mm5phALTYdal-44" value="ps5" style="rounded=0;whiteSpace=wrap;html=1;fontSize=16;fillColor=#ffcd28;gradientColor=#ffa500;strokeColor=#d79b00;" vertex="1" parent="1">
          <mxGeometry x="574" y="120" width="80" height="40" as="geometry" />
        </mxCell>
        <mxCell id="teMhRk45Mm5phALTYdal-45" value="...." style="rounded=0;whiteSpace=wrap;html=1;fontSize=16;fillColor=#ffcd28;gradientColor=#ffa500;strokeColor=#d79b00;" vertex="1" parent="1">
          <mxGeometry x="652" y="-70" width="76" height="40" as="geometry" />
        </mxCell>
        <mxCell id="teMhRk45Mm5phALTYdal-46" value="...." style="rounded=0;whiteSpace=wrap;html=1;fontSize=16;fillColor=#ffcd28;gradientColor=#ffa500;strokeColor=#d79b00;" vertex="1" parent="1">
          <mxGeometry x="808" y="-70" width="76" height="40" as="geometry" />
        </mxCell>
        <mxCell id="teMhRk45Mm5phALTYdal-47" style="edgeStyle=none;rounded=0;orthogonalLoop=1;jettySize=auto;html=1;entryX=0.5;entryY=0;entryDx=0;entryDy=0;exitX=0.5;exitY=1;exitDx=0;exitDy=0;" edge="1" parent="1" source="teMhRk45Mm5phALTYdal-48" target="teMhRk45Mm5phALTYdal-19">
          <mxGeometry relative="1" as="geometry" />
        </mxCell>
        <mxCell id="teMhRk45Mm5phALTYdal-48" value="" style="rounded=0;whiteSpace=wrap;html=1;fontSize=16;" vertex="1" parent="1">
          <mxGeometry x="650" y="80" width="80" height="80" as="geometry" />
        </mxCell>
        <mxCell id="teMhRk45Mm5phALTYdal-49" style="edgeStyle=none;rounded=0;orthogonalLoop=1;jettySize=auto;html=1;entryX=0.5;entryY=0;entryDx=0;entryDy=0;" edge="1" parent="1" source="teMhRk45Mm5phALTYdal-50" target="teMhRk45Mm5phALTYdal-12">
          <mxGeometry relative="1" as="geometry" />
        </mxCell>
        <mxCell id="teMhRk45Mm5phALTYdal-50" value="" style="rounded=0;whiteSpace=wrap;html=1;fontSize=16;" vertex="1" parent="1">
          <mxGeometry x="494" y="80" width="80" height="80" as="geometry" />
        </mxCell>
        <mxCell id="teMhRk45Mm5phALTYdal-51" style="edgeStyle=none;rounded=0;orthogonalLoop=1;jettySize=auto;html=1;entryX=0.5;entryY=0;entryDx=0;entryDy=0;exitX=0.5;exitY=1;exitDx=0;exitDy=0;" edge="1" parent="1" source="teMhRk45Mm5phALTYdal-52" target="teMhRk45Mm5phALTYdal-2">
          <mxGeometry relative="1" as="geometry" />
        </mxCell>
        <mxCell id="teMhRk45Mm5phALTYdal-52" value="" style="rounded=0;whiteSpace=wrap;html=1;fontSize=16;" vertex="1" parent="1">
          <mxGeometry x="340" y="80" width="80" height="80" as="geometry" />
        </mxCell>
        <mxCell id="teMhRk45Mm5phALTYdal-53" style="rounded=0;orthogonalLoop=1;jettySize=auto;html=1;exitX=0.5;exitY=1;exitDx=0;exitDy=0;entryX=0.425;entryY=-0.025;entryDx=0;entryDy=0;entryPerimeter=0;" edge="1" parent="1" source="teMhRk45Mm5phALTYdal-54" target="teMhRk45Mm5phALTYdal-52">
          <mxGeometry relative="1" as="geometry" />
        </mxCell>
        <mxCell id="teMhRk45Mm5phALTYdal-54" value="" style="rounded=0;whiteSpace=wrap;html=1;fontSize=16;" vertex="1" parent="1">
          <mxGeometry x="574" y="-110" width="76" height="80" as="geometry" />
        </mxCell>
        <mxCell id="teMhRk45Mm5phALTYdal-55" style="edgeStyle=none;rounded=0;orthogonalLoop=1;jettySize=auto;html=1;entryX=0.5;entryY=0;entryDx=0;entryDy=0;" edge="1" parent="1" source="teMhRk45Mm5phALTYdal-56" target="teMhRk45Mm5phALTYdal-25">
          <mxGeometry relative="1" as="geometry" />
        </mxCell>
        <mxCell id="teMhRk45Mm5phALTYdal-56" value="" style="rounded=0;whiteSpace=wrap;html=1;fontSize=16;" vertex="1" parent="1">
          <mxGeometry x="728" y="-110" width="80" height="80" as="geometry" />
        </mxCell>
        <mxCell id="teMhRk45Mm5phALTYdal-57" style="edgeStyle=none;rounded=0;orthogonalLoop=1;jettySize=auto;html=1;entryX=0.5;entryY=0;entryDx=0;entryDy=0;exitX=0.5;exitY=1;exitDx=0;exitDy=0;" edge="1" parent="1" source="teMhRk45Mm5phALTYdal-58" target="teMhRk45Mm5phALTYdal-26">
          <mxGeometry relative="1" as="geometry" />
        </mxCell>
        <mxCell id="teMhRk45Mm5phALTYdal-58" value="" style="rounded=0;whiteSpace=wrap;html=1;fontSize=16;" vertex="1" parent="1">
          <mxGeometry x="884" y="-110" width="80" height="80" as="geometry" />
        </mxCell>
      </root>
    </mxGraphModel>
  </diagram>
</mxfile>
